HIERARCHY
ROOT Hips
{
	OFFSET 0.000000 0.000000 0.000000
	CHANNELS 6 Xposition Yposition Zposition Zrotation Yrotation Xrotation 
	JOINT LeftUpLeg_virtual
	{
		OFFSET 0.000000 0.000000 0.000000
		CHANNELS 3 Zrotation Yrotation Xrotation
		JOINT LeftUpLeg
		{
			OFFSET 10.205400 -3.823500 0.155100
			CHANNELS 3 Zrotation Yrotation Xrotation
			JOINT LeftLeg
			{
				OFFSET 0.708757 -12.982077 0.567790
				CHANNELS 3 Zrotation Yrotation Xrotation
				JOINT LeftFoot
				{
					OFFSET -0.708756 -10.717838 -2.184338
					CHANNELS 3 Zrotation Yrotation Xrotation
					JOINT LeftToeBase
					{
						OFFSET 0.108149 -7.191104 7.560241
						CHANNELS 3 Zrotation Yrotation Xrotation
						End Site
						{
							OFFSET 0.000000 0.000000 0.000000
						}
					}
				}
			}
		}
	}
	JOINT RightUpLeg_virtual
	{
		OFFSET 0.000000 0.000000 0.000000
		CHANNELS 3 Zrotation Yrotation Xrotation
		JOINT RightUpLeg
		{
			OFFSET -10.205400 -3.823500 0.005500
			CHANNELS 3 Zrotation Yrotation Xrotation
			JOINT RightLeg
			{
				OFFSET -0.708756 -12.982134 0.610632
				CHANNELS 3 Zrotation Yrotation Xrotation
				JOINT RightFoot
				{
					OFFSET 0.708754 -10.717769 -1.945823
					CHANNELS 3 Zrotation Yrotation Xrotation
					JOINT RightToeBase
					{
						OFFSET -0.108140 -7.191069 7.372968
						CHANNELS 3 Zrotation Yrotation Xrotation
						End Site
						{
							OFFSET 0.000000 0.000000 0.000000
						}
					}
				}
			}
		}
	}
	JOINT Spine_virtual
	{
		OFFSET 0.000000 0.000000 0.000000
		CHANNELS 3 Zrotation Yrotation Xrotation
		JOINT Spine
		{
			OFFSET 0.000000 6.876099 0.125700
			CHANNELS 3 Zrotation Yrotation Xrotation
			JOINT Spine1
			{
				OFFSET 0.000000 8.022060 0.146608
				CHANNELS 3 Zrotation Yrotation Xrotation
				JOINT Spine2
				{
					OFFSET 0.000000 9.168068 0.167552
					CHANNELS 3 Zrotation Yrotation Xrotation
					JOINT Neck_virtual
					{
						OFFSET 0.000000 0.000000 0.000000
						CHANNELS 3 Zrotation Yrotation Xrotation
						JOINT Neck
						{
							OFFSET 0.000000 10.314075 0.188496
							CHANNELS 3 Zrotation Yrotation Xrotation
							JOINT Head
							{
								OFFSET 0.000000 7.643700 -2.377400
								CHANNELS 3 Zrotation Yrotation Xrotation
								End Site
								{
									OFFSET 0.000000 0.000000 0.000000
								}
							}
						}
					}
					JOINT LeftShoulder_virtual
					{
						OFFSET 0.000000 0.000000 0.000000
						CHANNELS 3 Zrotation Yrotation Xrotation
						JOINT LeftShoulder
						{
							OFFSET 4.392200 8.824978 0.174984
							CHANNELS 3 Zrotation Yrotation Xrotation
							JOINT LeftArm
							{
								OFFSET 8.771219 -2.981674 -0.026999
								CHANNELS 3 Zrotation Yrotation Xrotation
								JOINT LeftForeArm
								{
									OFFSET 8.512804 0.000000 -0.000000
									CHANNELS 3 Zrotation Yrotation Xrotation
									JOINT LeftHand
									{
										OFFSET 18.484802 0.000000 -0.000000
										CHANNELS 3 Zrotation Yrotation Xrotation
										End Site
										{
											OFFSET 0.000000 0.000000 0.000000
										}
									}
								}
							}
						}
					}
					JOINT RightShoulder_virtual
					{
						OFFSET 0.000000 0.000000 0.000000
						CHANNELS 3 Zrotation Yrotation Xrotation
						JOINT RightShoulder
						{
							OFFSET -4.392200 8.824993 0.141379
							CHANNELS 3 Zrotation Yrotation Xrotation
							JOINT RightArm
							{
								OFFSET -8.771282 -2.981682 -0.094208
								CHANNELS 3 Zrotation Yrotation Xrotation
								JOINT RightForeArm
								{
									OFFSET -8.494598 0.000000 0.000000
									CHANNELS 3 Zrotation Yrotation Xrotation
									JOINT RightHand
									{
										OFFSET -18.483803 0.000000 0.000001
										CHANNELS 3 Zrotation Yrotation Xrotation
										End Site
										{
											OFFSET 0.000000 0.000000 0.000000
										}
									}
								}
							}
						}
					}
				}
			}
		}
	}
}
MOTION
Frames: 8
Frame Time: 0.033333
7.947137 36.649029 -6.382537 179.879220 5.815542 -179.816300 -2.534508 -3.320062 10.338666 -4.617235 1.055730 -16.267996 7.587015 7.125180 16.019363 -8.353103 -0.478763 10.500793 0.000000 0.000000 0.000000 2.944112 -0.867307 8.699924 1.150289 -5.764859 -4.463876 -7.387924 0.149580 9.928487 9.052489 9.636924 14.560027 0.000000 0.000000 0.000000 1.619683 0.946375 -0.586616 -6.062291 0.917834 -6.405728 1.000790 -3.796316 3.369764 0.011364 -0.032264 -0.010634 0.700842 -2.132640 5.036298 1.127180 2.572292 -2.129111 0.000000 0.000000 0.000000 2.107178 -1.140753 2.603061 5.748787 1.388400 -5.410528 -21.828649 26.032783 -31.548114 -6.280128 -28.753000 -4.818041 0.000000 0.000000 0.000000 -1.419484 -0.391425 2.146861 7.483502 -6.511934 -9.679220 21.645754 -30.482328 -33.699173 -1.584242 37.658630 -5.942865 0.000000 0.000000 0.000000 
7.935889 36.647411 -6.338473 179.949147 5.586838 -179.733846 -2.533597 -3.311756 10.506470 -4.791930 1.274625 -16.162456 7.767117 7.036907 16.210126 -8.240289 -0.098248 10.589097 0.000000 0.000000 0.000000 3.269310 -0.662554 8.947508 1.086467 -5.494301 -4.380447 -7.518856 0.627896 10.270542 8.943990 9.879663 15.038318 0.000000 0.000000 0.000000 1.579235 0.780716 -0.494134 -5.924181 0.896500 -6.430701 1.012215 -3.676689 3.354490 0.018140 -0.097815 -0.017666 0.656242 -2.028388 5.021881 1.168399 2.464223 -2.064089 0.000000 0.000000 0.000000 2.056439 -1.042599 2.612598 5.713759 1.379173 -5.545691 -21.800448 26.057353 -31.416128 -6.327862 -28.734336 -4.674854 0.000000 0.000000 0.000000 -1.512478 -0.310884 2.167288 7.416002 -6.402836 -9.573430 21.476384 -30.358244 -33.818965 -1.661605 37.543292 -6.009465 0.000000 0.000000 0.000000 
7.931732 36.648590 -6.299291 179.949393 5.401397 -179.766180 -2.554103 -3.310100 10.584842 -4.746745 1.283234 -16.312414 7.765786 7.124332 16.119395 -8.344171 -0.187499 10.468392 0.000000 0.000000 0.000000 3.295626 -0.669602 9.123954 1.123545 -5.673736 -4.569173 -7.509957 0.584625 10.239194 9.098714 9.651669 15.063936 0.000000 0.000000 0.000000 1.529723 0.861491 -0.326676 -5.778858 0.996669 -6.389489 0.994577 -3.788784 3.388234 0.017148 -0.041350 -0.020609 0.633634 -2.044133 5.062272 1.158152 2.254233 -1.894022 0.000000 0.000000 0.000000 2.032369 -1.116067 2.633774 5.633639 1.146853 -5.392970 -21.849666 26.099857 -31.257616 -6.178103 -28.812494 -4.616203 0.000000 0.000000 0.000000 -1.540080 -0.353651 2.178035 7.375625 -6.332874 -9.433073 21.288113 -30.357169 -33.847938 -1.746618 37.462235 -5.975678 0.000000 0.000000 0.000000 
7.938992 36.649944 -6.274663 179.909478 5.245522 -179.798501 -2.584589 -3.299367 10.660620 -4.717095 1.295915 -16.453205 7.823283 7.113512 16.008281 -8.450377 -0.228128 10.439806 0.000000 0.000000 0.000000 3.287209 -0.685341 9.268467 1.130384 -5.908750 -4.721501 -7.424911 0.550632 10.246514 9.207223 9.378247 15.080602 0.000000 0.000000 0.000000 1.500496 0.870717 -0.285012 -5.608801 1.046607 -6.319186 0.976264 -3.799971 3.478895 0.029412 -0.048516 -0.015693 0.624607 -2.058972 5.053770 1.158958 1.991188 -1.533611 0.000000 0.000000 0.000000 2.028245 -1.087634 2.550353 5.526093 0.942595 -5.425551 -21.803139 26.235207 -30.903573 -6.031228 -28.981708 -4.507486 0.000000 0.000000 0.000000 -1.538863 -0.368129 2.120251 7.347708 -6.206184 -9.347461 21.148374 -30.437758 -33.862493 -1.843655 37.315915 -5.884269 0.000000 0.000000 0.000000 
7.948759 36.652596 -6.268846 179.844154 5.087206 -179.819442 -2.648851 -3.284156 10.682307 -4.665080 1.222447 -16.489258 7.835553 7.195404 15.965960 -8.549706 -0.347455 10.477659 0.000000 0.000000 0.000000 3.255111 -0.688499 9.351462 1.135226 -6.166451 -4.795704 -7.368904 0.568971 10.305418 9.377882 9.112418 15.075261 0.000000 0.000000 0.000000 1.406535 0.895137 -0.248814 -5.421269 1.097552 -6.317379 0.975293 -3.789324 3.491088 0.049002 -0.034758 0.030426 0.588916 -2.105002 4.978950 1.069691 1.635898 -1.181303 0.000000 0.000000 0.000000 2.010734 -1.094639 2.539783 5.400689 0.660110 -5.440939 -21.769515 26.456705 -30.635478 -5.801613 -29.229067 -4.427712 0.000000 0.000000 0.000000 -1.555711 -0.342970 2.075787 7.341898 -6.075005 -8.941823 21.176259 -30.672996 -34.020821 -2.089618 37.111867 -5.892863 0.000000 0.000000 0.000000 
7.946554 36.656109 -6.273801 179.918808 4.909222 -179.822270 -2.586958 -3.262458 10.614476 -4.656377 1.246790 -16.474411 7.873887 7.247516 15.981968 -8.722466 -0.324317 10.505090 0.000000 0.000000 0.000000 3.352401 -0.689991 9.390750 1.138855 -6.307874 -4.813333 -7.358491 0.527714 10.416693 9.516020 8.728163 15.036414 0.000000 0.000000 0.000000 1.505599 0.901722 -0.308126 -5.163180 1.112126 -6.286107 0.944661 -3.789583 3.530131 0.020779 -0.051751 0.011917 0.609436 -1.990753 4.953425 1.020544 1.322799 -0.631222 0.000000 0.000000 0.000000 2.004282 -1.000969 2.510391 5.230847 0.422783 -5.491276 -21.759753 26.837944 -30.225305 -5.635257 -29.606128 -4.162329 0.000000 0.000000 0.000000 -1.540272 -0.275439 2.089502 7.338535 -5.756266 -8.830558 21.355879 -31.004466 -34.183577 -2.238840 37.048718 -5.800504 0.000000 0.000000 0.000000 
7.953251 36.662846 -6.271067 179.901363 4.599734 -179.833034 -2.614292 -3.339076 10.532557 -4.523251 1.162858 -16.440253 7.885268 7.414773 16.030112 -8.855931 -0.392763 10.518931 0.000000 0.000000 0.000000 3.355647 -0.768320 9.444476 1.150853 -6.587489 -4.816006 -7.333473 0.529891 10.514065 9.607780 8.381853 14.968448 0.000000 0.000000 0.000000 1.486231 0.983207 -0.366176 -4.883554 1.162054 -6.284096 0.958893 -3.740020 3.571857 0.036457 -0.028913 0.058435 0.624736 -2.003890 4.912115 0.790422 0.898215 0.073875 0.000000 0.000000 0.000000 2.027005 -1.066723 2.500332 4.954415 -0.009459 -5.447071 -22.015213 27.265418 -29.918394 -5.367977 -30.152307 -3.965306 0.000000 0.000000 0.000000 -1.522160 -0.305011 2.011886 7.359512 -5.489487 -8.419734 21.907796 -31.502608 -34.785470 -2.472046 37.198016 -5.764229 0.000000 0.000000 0.000000 
7.962236 36.674274 -6.262679 179.814019 4.443433 -179.868073 -2.719329 -3.109026 10.510179 -4.329220 0.868520 -16.443696 7.832616 7.664475 15.970859 -8.980146 -0.654593 10.540525 0.000000 0.000000 0.000000 3.299913 -0.635671 9.465757 1.161608 -6.780133 -4.830704 -7.206981 0.611686 10.659487 9.525059 8.194938 14.979585 0.000000 0.000000 0.000000 1.410360 1.035006 -0.401477 -4.606022 1.232292 -6.324508 0.957058 -3.649940 3.611662 0.012052 0.020823 0.020071 0.692492 -2.077876 4.904092 0.491661 0.502067 0.918102 0.000000 0.000000 0.000000 2.117403 -1.068443 2.492576 4.555476 -0.404160 -5.423711 -22.623286 27.837160 -29.504846 -5.017901 -31.065603 -3.783197 0.000000 0.000000 0.000000 -1.437693 -0.286984 1.976143 7.478809 -5.100644 -7.983432 23.055251 -32.140124 -35.776442 -2.702190 37.781854 -5.743483 0.000000 0.000000 0.000000 
